<svg width="1439" height="253" viewBox="0 0 1439 253" fill="none" xmlns="http://www.w3.org/2000/svg">
<rect width="1440" height="253" fill="#0EB4C1"/>
<path d="M556.951 86.1152C556.951 89.0566 556.559 91.541 555.773 93.5684C555 95.5957 553.852 97.1074 552.328 98.1035L557.057 105.117H551.537L547.986 99.3516H547.723C544.746 99.3516 542.461 98.2148 540.867 95.9414C539.273 93.6562 538.477 90.3691 538.477 86.0801C538.477 81.8262 539.273 78.5684 540.867 76.3066C542.461 74.0332 544.758 72.8965 547.758 72.8965C550.723 72.8965 552.996 74.0391 554.578 76.3242C556.16 78.5977 556.951 81.8613 556.951 86.1152ZM543.363 86.1152C543.363 89.0449 543.732 91.2773 544.471 92.8125C545.209 94.3477 546.293 95.1152 547.723 95.1152C550.605 95.1152 552.047 92.1152 552.047 86.1152C552.047 80.1152 550.617 77.1152 547.758 77.1152C546.305 77.1152 545.209 77.8828 544.471 79.418C543.732 80.9414 543.363 83.1738 543.363 86.1152ZM570.029 99L569.098 96.3281H568.992C568.301 97.4766 567.586 98.2676 566.848 98.7012C566.109 99.1348 565.178 99.3516 564.053 99.3516C562.611 99.3516 561.475 98.8125 560.643 97.7344C559.822 96.6562 559.412 95.1562 559.412 93.2344C559.412 91.1719 559.975 89.6426 561.1 88.6465C562.236 87.6387 563.93 87.082 566.18 86.9766L568.781 86.8711V85.4648C568.781 83.6367 567.99 82.7227 566.408 82.7227C565.236 82.7227 563.889 83.1797 562.365 84.0938L560.748 80.8594C562.693 79.6289 564.809 79.0137 567.094 79.0137C569.168 79.0137 570.744 79.6113 571.822 80.8066C572.912 81.9902 573.457 83.6719 573.457 85.8516V99H570.029ZM565.969 95.6953C566.824 95.6953 567.504 95.3145 568.008 94.5527C568.523 93.7793 568.781 92.7539 568.781 91.4766V89.8242L567.34 89.8945C566.273 89.9531 565.488 90.2578 564.984 90.8086C564.492 91.3594 564.246 92.1797 564.246 93.2695C564.246 94.8867 564.82 95.6953 565.969 95.6953ZM586.078 79.0488C587.859 79.0488 589.26 79.9336 590.279 81.7031C591.299 83.4727 591.809 85.9629 591.809 89.1738C591.809 92.4199 591.293 94.9277 590.262 96.6973C589.242 98.4668 587.824 99.3516 586.008 99.3516C585.129 99.3516 584.35 99.1641 583.67 98.7891C583.002 98.4023 582.369 97.7285 581.771 96.7676H581.473L580.682 99H577.236V71.6484H581.912V78.0469C581.912 78.3164 581.906 78.5977 581.895 78.8906C581.883 79.1836 581.807 80.209 581.666 81.9668H581.912C582.486 80.8887 583.107 80.1328 583.775 79.6992C584.443 79.2656 585.211 79.0488 586.078 79.0488ZM584.461 83.0215C583.57 83.0215 582.926 83.4375 582.527 84.2695C582.141 85.1016 581.936 86.5664 581.912 88.6641V89.1387C581.912 91.4121 582.111 93.0117 582.51 93.9375C582.92 94.8633 583.582 95.3262 584.496 95.3262C586.184 95.3262 587.027 93.252 587.027 89.1035C587.027 85.0488 586.172 83.0215 584.461 83.0215ZM605.678 99L605.098 96.4863H604.852C604.418 97.377 603.797 98.0801 602.988 98.5957C602.191 99.0996 601.277 99.3516 600.246 99.3516C598.488 99.3516 597.158 98.7539 596.256 97.5586C595.354 96.3633 594.902 94.5762 594.902 92.1973V79.418H599.631V91.0723C599.631 92.502 599.801 93.5801 600.141 94.3066C600.48 95.0332 601.031 95.3965 601.793 95.3965C602.801 95.3965 603.533 94.8926 603.99 93.8848C604.459 92.877 604.693 91.1836 604.693 88.8047V79.418H609.422V99H605.678ZM618.018 99H613.342V71.6484H618.018V99ZM636.053 79.4531V82.1953L633.715 82.7227C634.172 83.543 634.4 84.5742 634.4 85.8164C634.4 87.8906 633.838 89.5137 632.713 90.6855C631.588 91.8574 630.018 92.4434 628.002 92.4434C627.416 92.4434 626.982 92.3965 626.701 92.3027C626.479 92.502 626.268 92.7246 626.068 92.9707C625.869 93.2168 625.77 93.5215 625.77 93.8848C625.77 94.7051 626.479 95.1152 627.896 95.1152H630.727C632.391 95.1152 633.668 95.5664 634.559 96.4688C635.461 97.3594 635.912 98.707 635.912 100.512C635.912 102.785 635.15 104.543 633.627 105.785C632.104 107.027 629.912 107.648 627.053 107.648C624.885 107.648 623.215 107.174 622.043 106.225C620.871 105.287 620.285 103.945 620.285 102.199C620.285 101.109 620.619 100.148 621.287 99.3164C621.955 98.4961 622.881 97.8984 624.064 97.5234C623.467 97.2891 622.975 96.9258 622.588 96.4336C622.213 95.9414 622.025 95.3672 622.025 94.7109C622.025 94.3125 622.084 93.9551 622.201 93.6387C622.318 93.3105 622.482 93.0059 622.693 92.7246C622.916 92.4316 623.361 92.0039 624.029 91.4414C623.221 90.9492 622.582 90.1934 622.113 89.1738C621.645 88.1543 621.41 87.0234 621.41 85.7812C621.41 83.6367 621.973 81.9785 623.098 80.8066C624.223 79.6348 625.834 79.0488 627.932 79.0488C628.33 79.0488 628.787 79.0957 629.303 79.1895C629.818 79.2715 630.211 79.3594 630.48 79.4531H636.053ZM624.539 101.848C624.539 102.621 624.779 103.213 625.26 103.623C625.752 104.045 626.449 104.256 627.352 104.256C628.77 104.256 629.83 103.986 630.533 103.447C631.248 102.908 631.605 102.17 631.605 101.232C631.605 100.494 631.412 99.9727 631.025 99.668C630.65 99.3633 629.941 99.2109 628.898 99.2109H626.631C625.998 99.2109 625.488 99.4453 625.102 99.9141C624.727 100.395 624.539 101.039 624.539 101.848ZM625.98 85.8164C625.98 88.125 626.631 89.2793 627.932 89.2793C629.197 89.2793 629.83 88.1133 629.83 85.7812C629.83 83.3906 629.197 82.1953 627.932 82.1953C626.631 82.1953 625.98 83.4023 625.98 85.8164ZM648.006 99L647.074 96.3281H646.969C646.277 97.4766 645.562 98.2676 644.824 98.7012C644.086 99.1348 643.154 99.3516 642.029 99.3516C640.588 99.3516 639.451 98.8125 638.619 97.7344C637.799 96.6562 637.389 95.1562 637.389 93.2344C637.389 91.1719 637.951 89.6426 639.076 88.6465C640.213 87.6387 641.906 87.082 644.156 86.9766L646.758 86.8711V85.4648C646.758 83.6367 645.967 82.7227 644.385 82.7227C643.213 82.7227 641.865 83.1797 640.342 84.0938L638.725 80.8594C640.67 79.6289 642.785 79.0137 645.07 79.0137C647.145 79.0137 648.721 79.6113 649.799 80.8066C650.889 81.9902 651.434 83.6719 651.434 85.8516V99H648.006ZM643.945 95.6953C644.801 95.6953 645.48 95.3145 645.984 94.5527C646.5 93.7793 646.758 92.7539 646.758 91.4766V89.8242L645.316 89.8945C644.25 89.9531 643.465 90.2578 642.961 90.8086C642.469 91.3594 642.223 92.1797 642.223 93.2695C642.223 94.8867 642.797 95.6953 643.945 95.6953ZM672.457 79.0488C673.031 79.0488 673.594 79.1367 674.145 79.3125L673.6 83.8477C673.271 83.7305 672.844 83.6719 672.316 83.6719C671.18 83.6719 670.307 84.123 669.697 85.0254C669.088 85.916 668.783 87.2168 668.783 88.9277V99H664.107V79.418H667.957L668.484 82.4766H668.643C669.158 81.2461 669.721 80.3672 670.33 79.8398C670.939 79.3125 671.648 79.0488 672.457 79.0488ZM690.738 89.1738C690.738 92.3848 690.059 94.8867 688.699 96.6797C687.34 98.4609 685.477 99.3516 683.109 99.3516C681.609 99.3516 680.285 98.9414 679.137 98.1211C677.988 97.3008 677.104 96.123 676.482 94.5879C675.861 93.041 675.551 91.2363 675.551 89.1738C675.551 85.998 676.225 83.5195 677.572 81.7383C678.92 79.9453 680.789 79.0488 683.18 79.0488C685.488 79.0488 687.322 79.9629 688.682 81.791C690.053 83.6074 690.738 86.0684 690.738 89.1738ZM680.332 89.1738C680.332 91.2129 680.555 92.7539 681 93.7969C681.445 94.8398 682.16 95.3613 683.145 95.3613C685.02 95.3613 685.957 93.2988 685.957 89.1738C685.957 87.123 685.729 85.5938 685.271 84.5859C684.826 83.5664 684.117 83.0566 683.145 83.0566C682.16 83.0566 681.445 83.5664 681 84.5859C680.555 85.5938 680.332 87.123 680.332 89.1738ZM698.807 73.3008L699.053 73.6875C698.467 75.9961 697.436 78.8027 695.959 82.1074H692.391C693.141 79.1074 693.732 76.1719 694.166 73.3008H698.807ZM699.422 79.418H704.273L706.98 90.4746C707.25 91.459 707.467 92.8359 707.631 94.6055H707.736C707.748 94.3242 707.801 93.8262 707.895 93.1113C707.988 92.3848 708.064 91.8164 708.123 91.4062C708.182 90.9961 708.99 87 710.549 79.418H715.471L709.863 100.406C709.184 102.984 708.281 104.836 707.156 105.961C706.031 107.086 704.531 107.648 702.656 107.648C701.73 107.648 700.904 107.549 700.178 107.35V103.43C700.658 103.57 701.197 103.641 701.795 103.641C703.365 103.641 704.396 102.609 704.889 100.547L705.223 99.3164L699.422 79.418ZM720.85 88.998L715.963 79.418H720.814L723.416 85.3945L725.824 79.418H730.641L725.719 88.998L730.852 99H725.965L723.188 92.7422L720.604 99H715.734L720.85 88.998ZM742.717 99L741.785 96.3281H741.68C740.988 97.4766 740.273 98.2676 739.535 98.7012C738.797 99.1348 737.865 99.3516 736.74 99.3516C735.299 99.3516 734.162 98.8125 733.33 97.7344C732.51 96.6562 732.1 95.1562 732.1 93.2344C732.1 91.1719 732.662 89.6426 733.787 88.6465C734.924 87.6387 736.617 87.082 738.867 86.9766L741.469 86.8711V85.4648C741.469 83.6367 740.678 82.7227 739.096 82.7227C737.924 82.7227 736.576 83.1797 735.053 84.0938L733.436 80.8594C735.381 79.6289 737.496 79.0137 739.781 79.0137C741.855 79.0137 743.432 79.6113 744.51 80.8066C745.6 81.9902 746.145 83.6719 746.145 85.8516V99H742.717ZM738.656 95.6953C739.512 95.6953 740.191 95.3145 740.695 94.5527C741.211 93.7793 741.469 92.7539 741.469 91.4766V89.8242L740.027 89.8945C738.961 89.9531 738.176 90.2578 737.672 90.8086C737.18 91.3594 736.934 92.1797 736.934 93.2695C736.934 94.8867 737.508 95.6953 738.656 95.6953ZM756.727 95.3965C757.383 95.3965 758.092 95.2324 758.854 94.9043V98.5605C758.092 99.0879 756.949 99.3516 755.426 99.3516C753.727 99.3516 752.467 98.8477 751.646 97.8398C750.826 96.8203 750.416 95.2969 750.416 93.2695V83.127H748.518V81.0352L750.961 79.3477L752.156 75.1992H755.145V79.418H758.695V83.127H755.145V93.4277C755.145 94.7402 755.672 95.3965 756.727 95.3965ZM766.746 99.3516C764.941 99.3516 763.518 98.4609 762.475 96.6797C761.432 94.8984 760.91 92.4199 760.91 89.2441C760.91 86.0566 761.42 83.5605 762.439 81.7559C763.459 79.9512 764.865 79.0488 766.658 79.0488C767.549 79.0488 768.316 79.2715 768.961 79.7168C769.617 80.1504 770.221 80.8887 770.771 81.9316H771.053C770.912 80.1504 770.842 78.9023 770.842 78.1875V71.6484H775.518V99H772.037L771.246 96.4512H771.088C770.092 98.3848 768.645 99.3516 766.746 99.3516ZM768.258 95.3965C769.125 95.3965 769.758 95.0039 770.156 94.2188C770.555 93.4219 770.771 91.9805 770.807 89.8945V89.2793C770.807 87.0059 770.602 85.4062 770.191 84.4805C769.793 83.5547 769.131 83.0918 768.205 83.0918C767.338 83.0918 766.705 83.625 766.307 84.6914C765.92 85.7461 765.727 87.2871 765.727 89.3145C765.727 91.3418 765.926 92.8652 766.324 93.8848C766.723 94.8926 767.367 95.3965 768.258 95.3965ZM789.053 99L788.121 96.3281H788.016C787.324 97.4766 786.609 98.2676 785.871 98.7012C785.133 99.1348 784.201 99.3516 783.076 99.3516C781.635 99.3516 780.498 98.8125 779.666 97.7344C778.846 96.6562 778.436 95.1562 778.436 93.2344C778.436 91.1719 778.998 89.6426 780.123 88.6465C781.26 87.6387 782.953 87.082 785.203 86.9766L787.805 86.8711V85.4648C787.805 83.6367 787.014 82.7227 785.432 82.7227C784.26 82.7227 782.912 83.1797 781.389 84.0938L779.771 80.8594C781.717 79.6289 783.832 79.0137 786.117 79.0137C788.191 79.0137 789.768 79.6113 790.846 80.8066C791.936 81.9902 792.48 83.6719 792.48 85.8516V99H789.053ZM784.992 95.6953C785.848 95.6953 786.527 95.3145 787.031 94.5527C787.547 93.7793 787.805 92.7539 787.805 91.4766V89.8242L786.363 89.8945C785.297 89.9531 784.512 90.2578 784.008 90.8086C783.516 91.3594 783.27 92.1797 783.27 93.2695C783.27 94.8867 783.844 95.6953 784.992 95.6953ZM806.016 99V87.3281C806.016 85.9102 805.846 84.8379 805.506 84.1113C805.166 83.3848 804.615 83.0215 803.854 83.0215C802.846 83.0215 802.107 83.5254 801.639 84.5332C801.17 85.5293 800.936 87.2168 800.936 89.5957V99H796.26V79.418H799.969L800.531 81.9316H800.83C801.252 81.0293 801.855 80.3262 802.641 79.8223C803.426 79.3066 804.346 79.0488 805.4 79.0488C807.182 79.0488 808.512 79.6582 809.391 80.877C810.281 82.0957 810.727 83.877 810.727 86.2207V99H806.016ZM837.902 89.1738C837.902 92.3848 837.223 94.8867 835.863 96.6797C834.504 98.4609 832.641 99.3516 830.273 99.3516C828.773 99.3516 827.449 98.9414 826.301 98.1211C825.152 97.3008 824.268 96.123 823.646 94.5879C823.025 93.041 822.715 91.2363 822.715 89.1738C822.715 85.998 823.389 83.5195 824.736 81.7383C826.084 79.9453 827.953 79.0488 830.344 79.0488C832.652 79.0488 834.486 79.9629 835.846 81.791C837.217 83.6074 837.902 86.0684 837.902 89.1738ZM827.496 89.1738C827.496 91.2129 827.719 92.7539 828.164 93.7969C828.609 94.8398 829.324 95.3613 830.309 95.3613C832.184 95.3613 833.121 93.2988 833.121 89.1738C833.121 87.123 832.893 85.5938 832.436 84.5859C831.99 83.5664 831.281 83.0566 830.309 83.0566C829.324 83.0566 828.609 83.5664 828.164 84.5859C827.719 85.5938 827.496 87.123 827.496 89.1738ZM845.971 73.3008L846.217 73.6875C845.631 75.9961 844.6 78.8027 843.123 82.1074H839.555C840.305 79.1074 840.896 76.1719 841.33 73.3008H845.971ZM855.375 95.3965C856.031 95.3965 856.74 95.2324 857.502 94.9043V98.5605C856.74 99.0879 855.598 99.3516 854.074 99.3516C852.375 99.3516 851.115 98.8477 850.295 97.8398C849.475 96.8203 849.064 95.2969 849.064 93.2695V83.127H847.166V81.0352L849.609 79.3477L850.805 75.1992H853.793V79.418H857.344V83.127H853.793V93.4277C853.793 94.7402 854.32 95.3965 855.375 95.3965ZM864.955 99H860.279V79.418H864.955V99ZM860.086 74.3027C860.086 73.5293 860.309 72.9199 860.754 72.4746C861.211 72.0176 861.844 71.7891 862.652 71.7891C863.414 71.7891 864.023 72.0176 864.48 72.4746C864.938 72.9199 865.166 73.5293 865.166 74.3027C865.166 75.0996 864.932 75.7207 864.463 76.166C863.994 76.5996 863.391 76.8164 862.652 76.8164C861.879 76.8164 861.258 76.5996 860.789 76.166C860.32 75.7207 860.086 75.0996 860.086 74.3027ZM878.719 99V87.3281C878.719 85.9102 878.549 84.8379 878.209 84.1113C877.869 83.3848 877.318 83.0215 876.557 83.0215C875.549 83.0215 874.811 83.5254 874.342 84.5332C873.873 85.5293 873.639 87.2168 873.639 89.5957V99H868.963V79.418H872.672L873.234 81.9316H873.533C873.955 81.0293 874.559 80.3262 875.344 79.8223C876.129 79.3066 877.049 79.0488 878.104 79.0488C879.885 79.0488 881.215 79.6582 882.094 80.877C882.984 82.0957 883.43 83.877 883.43 86.2207V99H878.719ZM901.307 79.4531V82.1953L898.969 82.7227C899.426 83.543 899.654 84.5742 899.654 85.8164C899.654 87.8906 899.092 89.5137 897.967 90.6855C896.842 91.8574 895.271 92.4434 893.256 92.4434C892.67 92.4434 892.236 92.3965 891.955 92.3027C891.732 92.502 891.521 92.7246 891.322 92.9707C891.123 93.2168 891.023 93.5215 891.023 93.8848C891.023 94.7051 891.732 95.1152 893.15 95.1152H895.98C897.645 95.1152 898.922 95.5664 899.812 96.4688C900.715 97.3594 901.166 98.707 901.166 100.512C901.166 102.785 900.404 104.543 898.881 105.785C897.357 107.027 895.166 107.648 892.307 107.648C890.139 107.648 888.469 107.174 887.297 106.225C886.125 105.287 885.539 103.945 885.539 102.199C885.539 101.109 885.873 100.148 886.541 99.3164C887.209 98.4961 888.135 97.8984 889.318 97.5234C888.721 97.2891 888.229 96.9258 887.842 96.4336C887.467 95.9414 887.279 95.3672 887.279 94.7109C887.279 94.3125 887.338 93.9551 887.455 93.6387C887.572 93.3105 887.736 93.0059 887.947 92.7246C888.17 92.4316 888.615 92.0039 889.283 91.4414C888.475 90.9492 887.836 90.1934 887.367 89.1738C886.898 88.1543 886.664 87.0234 886.664 85.7812C886.664 83.6367 887.227 81.9785 888.352 80.8066C889.477 79.6348 891.088 79.0488 893.186 79.0488C893.584 79.0488 894.041 79.0957 894.557 79.1895C895.072 79.2715 895.465 79.3594 895.734 79.4531H901.307ZM889.793 101.848C889.793 102.621 890.033 103.213 890.514 103.623C891.006 104.045 891.703 104.256 892.605 104.256C894.023 104.256 895.084 103.986 895.787 103.447C896.502 102.908 896.859 102.17 896.859 101.232C896.859 100.494 896.666 99.9727 896.279 99.668C895.904 99.3633 895.195 99.2109 894.152 99.2109H891.885C891.252 99.2109 890.742 99.4453 890.355 99.9141C889.98 100.395 889.793 101.039 889.793 101.848ZM891.234 85.8164C891.234 88.125 891.885 89.2793 893.186 89.2793C894.451 89.2793 895.084 88.1133 895.084 85.7812C895.084 83.3906 894.451 82.1953 893.186 82.1953C891.885 82.1953 891.234 83.4023 891.234 85.8164Z" fill="white"/>
<g opacity="0.6">
<rect x="497" y="148" width="192" height="40" rx="7" fill="#DE2E54"/>
<path d="M528.313 168.631C528.313 169.857 528.149 170.892 527.822 171.737C527.5 172.582 527.021 173.211 526.387 173.626L528.357 176.549H526.057L524.578 174.146H524.468C523.228 174.146 522.275 173.673 521.611 172.726C520.947 171.773 520.615 170.404 520.615 168.617C520.615 166.844 520.947 165.487 521.611 164.544C522.275 163.597 523.232 163.124 524.482 163.124C525.718 163.124 526.665 163.6 527.324 164.552C527.983 165.499 528.313 166.859 528.313 168.631ZM522.651 168.631C522.651 169.852 522.805 170.782 523.113 171.422C523.42 172.062 523.872 172.381 524.468 172.381C525.669 172.381 526.27 171.131 526.27 168.631C526.27 166.131 525.674 164.881 524.482 164.881C523.877 164.881 523.42 165.201 523.113 165.841C522.805 166.476 522.651 167.406 522.651 168.631ZM539.249 168.631C539.249 170.404 538.917 171.766 538.252 172.718C537.588 173.67 536.639 174.146 535.403 174.146C534.163 174.146 533.211 173.673 532.547 172.726C531.883 171.773 531.551 170.404 531.551 168.617C531.551 166.844 531.883 165.487 532.547 164.544C533.211 163.597 534.168 163.124 535.418 163.124C536.653 163.124 537.601 163.6 538.26 164.552C538.919 165.499 539.249 166.859 539.249 168.631ZM533.587 168.631C533.587 169.852 533.741 170.782 534.048 171.422C534.356 172.062 534.808 172.381 535.403 172.381C536.604 172.381 537.205 171.131 537.205 168.631C537.205 166.131 536.609 164.881 535.418 164.881C534.812 164.881 534.356 165.201 534.048 165.841C533.741 166.476 533.587 167.406 533.587 168.631ZM544.691 163.292L544.793 163.453C544.549 164.415 544.12 165.584 543.504 166.961H542.018C542.33 165.711 542.577 164.488 542.757 163.292H544.691ZM555.392 174H552.96L549.65 166.244H549.555C549.677 166.834 549.738 167.469 549.738 168.148V174H547.892V163.292H550.338L553.62 170.968H553.7C553.607 170.455 553.561 169.845 553.561 169.137V163.292H555.392V174ZM562.519 168.06H565.793V173.553C564.865 173.949 563.879 174.146 562.834 174.146C561.589 174.146 560.629 173.673 559.956 172.726C559.287 171.778 558.952 170.414 558.952 168.631C558.952 166.913 559.335 165.567 560.102 164.596C560.874 163.624 561.95 163.138 563.332 163.138C564.187 163.138 565.002 163.358 565.778 163.797L565.148 165.423C564.543 165.072 563.977 164.896 563.449 164.896C562.692 164.896 562.092 165.235 561.647 165.914C561.208 166.588 560.988 167.508 560.988 168.675C560.988 169.876 561.147 170.797 561.464 171.437C561.787 172.076 562.253 172.396 562.863 172.396C563.186 172.396 563.513 172.354 563.845 172.271V169.818H562.519V168.06ZM571.301 163.292L571.404 163.453C571.16 164.415 570.73 165.584 570.115 166.961H568.628C568.94 165.711 569.187 164.488 569.368 163.292H571.301ZM574.861 174V163.292H576.736V174H574.861ZM582.992 169.833V174H581V163.292H583.607C584.71 163.292 585.523 163.553 586.046 164.076C586.573 164.598 586.837 165.396 586.837 166.471C586.837 167.823 586.38 168.768 585.467 169.305L587.525 174H585.394L583.702 169.833H582.992ZM582.992 168.119H583.504C583.973 168.119 584.31 167.987 584.515 167.723C584.72 167.455 584.823 167.057 584.823 166.529C584.823 165.982 584.713 165.594 584.493 165.365C584.278 165.13 583.944 165.013 583.49 165.013H582.992V168.119ZM597.868 168.631C597.868 170.404 597.536 171.766 596.872 172.718C596.208 173.67 595.258 174.146 594.022 174.146C592.782 174.146 591.83 173.673 591.166 172.726C590.502 171.773 590.17 170.404 590.17 168.617C590.17 166.844 590.502 165.487 591.166 164.544C591.83 163.597 592.787 163.124 594.037 163.124C595.272 163.124 596.22 163.6 596.879 164.552C597.538 165.499 597.868 166.859 597.868 168.631ZM592.206 168.631C592.206 169.852 592.36 170.782 592.667 171.422C592.975 172.062 593.427 172.381 594.022 172.381C595.224 172.381 595.824 171.131 595.824 168.631C595.824 166.131 595.229 164.881 594.037 164.881C593.432 164.881 592.975 165.201 592.667 165.841C592.36 166.476 592.206 167.406 592.206 168.631ZM608.803 168.631C608.803 169.857 608.64 170.892 608.312 171.737C607.99 172.582 607.512 173.211 606.877 173.626L608.847 176.549H606.547L605.068 174.146H604.958C603.718 174.146 602.766 173.673 602.102 172.726C601.438 171.773 601.105 170.404 601.105 168.617C601.105 166.844 601.438 165.487 602.102 164.544C602.766 163.597 603.723 163.124 604.973 163.124C606.208 163.124 607.155 163.6 607.814 164.552C608.474 165.499 608.803 166.859 608.803 168.631ZM603.142 168.631C603.142 169.852 603.295 170.782 603.603 171.422C603.911 172.062 604.362 172.381 604.958 172.381C606.159 172.381 606.76 171.131 606.76 168.631C606.76 166.131 606.164 164.881 604.973 164.881C604.367 164.881 603.911 165.201 603.603 165.841C603.295 166.476 603.142 167.406 603.142 168.631ZM625.445 168.631C625.445 169.857 625.281 170.892 624.954 171.737C624.632 172.582 624.153 173.211 623.519 173.626L625.489 176.549H623.189L621.709 174.146H621.6C620.359 174.146 619.407 173.673 618.743 172.726C618.079 171.773 617.747 170.404 617.747 168.617C617.747 166.844 618.079 165.487 618.743 164.544C619.407 163.597 620.364 163.124 621.614 163.124C622.85 163.124 623.797 163.6 624.456 164.552C625.115 165.499 625.445 166.859 625.445 168.631ZM619.783 168.631C619.783 169.852 619.937 170.782 620.245 171.422C620.552 172.062 621.004 172.381 621.6 172.381C622.801 172.381 623.401 171.131 623.401 168.631C623.401 166.131 622.806 164.881 621.614 164.881C621.009 164.881 620.552 165.201 620.245 165.841C619.937 166.476 619.783 167.406 619.783 168.631ZM629.371 174V163.292H631.246V174H629.371ZM635.509 174V163.292H637.501V172.257H640.263V174H635.509ZM643.903 174V163.292H645.778V174H643.903ZM654.919 171.048C654.919 172.049 654.666 172.816 654.158 173.348C653.655 173.88 652.927 174.146 651.975 174.146C651.042 174.146 650.249 173.963 649.595 173.597V171.627C650.396 172.149 651.13 172.411 651.799 172.411C652.18 172.411 652.466 172.306 652.656 172.096C652.852 171.886 652.949 171.6 652.949 171.239C652.949 170.882 652.834 170.558 652.605 170.265C652.375 169.967 651.997 169.637 651.47 169.276C651.011 168.958 650.662 168.656 650.422 168.368C650.188 168.075 650.005 167.748 649.873 167.386C649.746 167.025 649.683 166.605 649.683 166.126C649.683 165.208 649.937 164.481 650.444 163.944C650.957 163.407 651.643 163.138 652.502 163.138C653.323 163.138 654.111 163.368 654.868 163.827L654.209 165.423C653.975 165.287 653.728 165.165 653.469 165.057C653.215 164.95 652.942 164.896 652.649 164.896C652.327 164.896 652.078 165.003 651.902 165.218C651.731 165.428 651.646 165.716 651.646 166.083C651.646 166.444 651.748 166.759 651.953 167.027C652.163 167.296 652.527 167.601 653.044 167.943C653.743 168.412 654.229 168.89 654.502 169.378C654.78 169.867 654.919 170.423 654.919 171.048ZM664.852 174H662.859V169.305H660.23V174H658.238V163.292H660.23V167.547H662.859V163.292H664.852V174Z" fill="white"/>
<rect x="497" y="148" width="192" height="40" rx="7" stroke="#DE2E54" stroke-width="2"/>
</g>
<path d="M758.233 174H756.249V165.042H754.198V163.292H760.284V165.042H758.233V174ZM768.261 174H763.434V163.292H768.261V165.013H765.426V167.562H768.056V169.291H765.426V172.257H768.261V174ZM771.821 174V163.292H773.813V172.257H776.574V174H771.821ZM784.683 174H779.856V163.292H784.683V165.013H781.848V167.562H784.478V169.291H781.848V172.257H784.683V174ZM791.48 168.06H794.754V173.553C793.826 173.949 792.84 174.146 791.795 174.146C790.55 174.146 789.59 173.673 788.917 172.726C788.248 171.778 787.913 170.414 787.913 168.631C787.913 166.913 788.296 165.567 789.063 164.596C789.834 163.624 790.911 163.138 792.293 163.138C793.147 163.138 793.963 163.358 794.739 163.797L794.109 165.423C793.504 165.072 792.938 164.896 792.41 164.896C791.653 164.896 791.053 165.235 790.608 165.914C790.169 166.588 789.949 167.508 789.949 168.675C789.949 169.876 790.108 170.797 790.425 171.437C790.748 172.076 791.214 172.396 791.824 172.396C792.146 172.396 792.474 172.354 792.806 172.271V169.818H791.48V168.06ZM800.379 169.833V174H798.387V163.292H800.995C802.098 163.292 802.911 163.553 803.434 164.076C803.961 164.598 804.225 165.396 804.225 166.471C804.225 167.823 803.768 168.768 802.855 169.305L804.913 174H802.782L801.09 169.833H800.379ZM800.379 168.119H800.892C801.361 168.119 801.698 167.987 801.903 167.723C802.108 167.455 802.21 167.057 802.21 166.529C802.21 165.982 802.101 165.594 801.881 165.365C801.666 165.13 801.332 165.013 800.877 165.013H800.379V168.119ZM812.956 174L812.34 171.297H809.55L808.935 174H806.942L809.594 163.248H812.296L814.955 174H812.956ZM811.967 169.532L811.396 167.042C811.361 166.891 811.283 166.512 811.161 165.907C811.044 165.296 810.973 164.889 810.949 164.684C810.885 165.104 810.805 165.567 810.707 166.075C810.609 166.578 810.355 167.73 809.945 169.532H811.967ZM821.723 174L819.687 164.881H819.606C819.699 165.584 819.746 166.229 819.746 166.815V174H817.9V163.292H820.961L822.792 171.708H822.851L824.667 163.292H827.773V174H825.883V166.742C825.883 166.141 825.917 165.526 825.986 164.896H825.927L823.898 174H821.723ZM838.474 168.543C838.474 170.311 838.113 171.664 837.39 172.601C836.672 173.534 835.637 174 834.285 174H831.663V163.292H834.526C835.771 163.292 836.741 163.753 837.434 164.676C838.127 165.594 838.474 166.883 838.474 168.543ZM836.431 168.602C836.431 166.209 835.771 165.013 834.453 165.013H833.655V172.257H834.299C835.027 172.257 835.564 171.954 835.911 171.349C836.257 170.738 836.431 169.823 836.431 168.602ZM847.11 174L846.495 171.297H843.704L843.089 174H841.097L843.748 163.248H846.451L849.109 174H847.11ZM846.121 169.532L845.55 167.042C845.516 166.891 845.438 166.512 845.315 165.907C845.198 165.296 845.127 164.889 845.103 164.684C845.04 165.104 844.959 165.567 844.861 166.075C844.764 166.578 844.51 167.73 844.1 169.532H846.121ZM859.554 174H857.123L853.812 166.244H853.717C853.839 166.834 853.9 167.469 853.9 168.148V174H852.054V163.292H854.5L857.782 170.968H857.862C857.77 170.455 857.723 169.845 857.723 169.137V163.292H859.554V174ZM871.728 167.518L873.156 163.292H875.244L872.702 169.708V174H870.739V169.789L868.205 163.292H870.307L871.728 167.518ZM885.33 168.631C885.33 170.404 884.998 171.766 884.333 172.718C883.669 173.67 882.72 174.146 881.484 174.146C880.244 174.146 879.292 173.673 878.628 172.726C877.964 171.773 877.632 170.404 877.632 168.617C877.632 166.844 877.964 165.487 878.628 164.544C879.292 163.597 880.249 163.124 881.499 163.124C882.734 163.124 883.682 163.6 884.341 164.552C885 165.499 885.33 166.859 885.33 168.631ZM879.668 168.631C879.668 169.852 879.822 170.782 880.129 171.422C880.437 172.062 880.889 172.381 881.484 172.381C882.686 172.381 883.286 171.131 883.286 168.631C883.286 166.131 882.69 164.881 881.499 164.881C880.894 164.881 880.437 165.201 880.129 165.841C879.822 166.476 879.668 167.406 879.668 168.631ZM894.061 174H888.267V172.608L891.688 165.028H888.37V163.292H893.951V164.684L890.53 172.257H894.061V174ZM897.687 174V163.292H899.562V174H897.687ZM908.703 171.048C908.703 172.049 908.449 172.816 907.941 173.348C907.438 173.88 906.71 174.146 905.758 174.146C904.826 174.146 904.032 173.963 903.378 173.597V171.627C904.179 172.149 904.914 172.411 905.583 172.411C905.963 172.411 906.249 172.306 906.439 172.096C906.635 171.886 906.732 171.6 906.732 171.239C906.732 170.882 906.618 170.558 906.388 170.265C906.159 169.967 905.78 169.637 905.253 169.276C904.794 168.958 904.445 168.656 904.206 168.368C903.971 168.075 903.788 167.748 903.656 167.386C903.529 167.025 903.466 166.605 903.466 166.126C903.466 165.208 903.72 164.481 904.228 163.944C904.74 163.407 905.426 163.138 906.286 163.138C907.106 163.138 907.895 163.368 908.651 163.827L907.992 165.423C907.758 165.287 907.511 165.165 907.252 165.057C906.999 164.95 906.725 164.896 906.432 164.896C906.11 164.896 905.861 165.003 905.685 165.218C905.514 165.428 905.429 165.716 905.429 166.083C905.429 166.444 905.531 166.759 905.736 167.027C905.946 167.296 906.31 167.601 906.828 167.943C907.526 168.412 908.012 168.89 908.285 169.378C908.563 169.867 908.703 170.423 908.703 171.048ZM918.635 174H916.643V169.305H914.013V174H912.021V163.292H914.013V167.547H916.643V163.292H918.635V174Z" fill="white"/>
<rect x="731" y="148" width="212" height="40" rx="7" stroke="white" stroke-width="2"/>
</svg>
